<?xml version="1.0" encoding="utf-8"?>
<!-- Generator: Adobe Illustrator 27.5.0, SVG Export Plug-In . SVG Version: 6.00 Build 0)  -->
<svg version="1.1" id="Layer_1" xmlns="http://www.w3.org/2000/svg" xmlns:xlink="http://www.w3.org/1999/xlink" x="0px" y="0px"
	 viewBox="0 0 1200 1200" style="enable-background:new 0 0 1200 1200;" xml:space="preserve">
<g>
	<g id="XMLID_201_">
		<path id="XMLID_202_" style="fill:#231F20;" d="M964.974,886.223c-6.187,8.921-16.487,14.774-28.166,14.774
			c-11.679,0-21.979-5.853-28.166-14.774l-27.23,3.812c-6.766,0.947-11.799,6.735-11.799,13.566v122.088
			c0,8.75,7.093,15.843,15.843,15.843h51.352h51.352c8.75,0,15.843-7.093,15.843-15.843V903.602c0-6.832-5.034-12.619-11.799-13.566
			L964.974,886.223z"/>
	</g>
	<g id="XMLID_200_">
		<path id="XMLID_159_" style="fill:#231F20;" d="M988.159,1042.843H885.454c-9.459,0-17.154-7.695-17.154-17.152V903.602
			c0-7.441,5.559-13.831,12.93-14.863l27.23-3.813c0.48-0.069,0.977,0.144,1.258,0.551c6.172,8.898,16.298,14.209,27.09,14.209
			c10.792,0,20.919-5.311,27.09-14.209c0.279-0.408,0.764-0.62,1.258-0.551l27.228,3.813c7.371,1.031,12.93,7.422,12.93,14.863
			v122.089C1005.313,1035.148,997.618,1042.843,988.159,1042.843z M908.034,887.63l-26.442,3.703
			c-6.083,0.852-10.67,6.126-10.67,12.268v122.089c0,8.012,6.518,14.53,14.532,14.53h102.704c8.014,0,14.532-6.518,14.532-14.53
			V903.602c0-6.142-4.587-11.416-10.67-12.268l-26.44-3.703c-6.697,9.205-17.393,14.678-28.773,14.678
			C925.427,902.308,914.732,896.835,908.034,887.63z"/>
	</g>
	<g id="XMLID_198_">
		<path id="XMLID_199_" style="fill:#FFFFFF;" d="M964.974,878.572c-6.187,8.921-16.487,14.774-28.166,14.774
			c-11.679,0-21.979-5.853-28.166-14.774l-27.23,3.812c-6.766,0.947-11.799,6.735-11.799,13.566v122.088
			c0,8.75,7.093,15.843,15.843,15.843h51.352h51.352c8.75,0,15.843-7.093,15.843-15.843V895.95c0-6.832-5.034-12.619-11.799-13.566
			L964.974,878.572z"/>
	</g>
	<g id="XMLID_177_">
		<path id="XMLID_210_" style="fill:#231F20;" d="M988.159,1035.191H885.454c-9.459,0-17.154-7.695-17.154-17.153V895.95
			c0-7.441,5.559-13.832,12.93-14.863l27.23-3.811c0.48-0.067,0.974,0.144,1.258,0.551c6.172,8.896,16.298,14.207,27.09,14.207
			c10.792,0,20.919-5.311,27.09-14.207c0.283-0.407,0.764-0.618,1.258-0.551l27.228,3.811c7.371,1.031,12.93,7.422,12.93,14.863
			v122.089C1005.313,1027.496,997.618,1035.191,988.159,1035.191z M908.034,879.98l-26.442,3.701
			c-6.083,0.852-10.67,6.126-10.67,12.268v122.089c0,8.012,6.518,14.53,14.532,14.53h102.704c8.014,0,14.532-6.518,14.532-14.53
			V895.95c0-6.142-4.587-11.416-10.67-12.268l-26.44-3.701c-6.697,9.205-17.393,14.676-28.773,14.676
			C925.427,894.656,914.732,889.185,908.034,879.98z"/>
	</g>
	<g id="XMLID_211_">
		<path id="XMLID_212_" style="fill:#231F20;" d="M1021.418,918.347c-6.187,8.921-16.487,14.774-28.166,14.774
			c-11.679,0-21.979-5.853-28.166-14.774l-27.23,3.812c-6.766,0.947-11.799,6.735-11.799,13.566v122.088
			c0,8.75,7.093,15.843,15.843,15.843h51.352h51.352c8.75,0,15.843-7.093,15.843-15.843V935.726c0-6.832-5.034-12.619-11.799-13.566
			L1021.418,918.347z"/>
	</g>
	<g id="XMLID_209_">
		<path id="XMLID_206_" style="fill:#231F20;" d="M1044.603,1074.967H941.898c-9.459,0-17.154-7.695-17.154-17.153V935.725
			c0-7.441,5.559-13.831,12.93-14.863l27.23-3.813c0.48-0.069,0.976,0.144,1.258,0.551c6.172,8.898,16.298,14.209,27.09,14.209
			c10.792,0,20.918-5.311,27.09-14.209c0.282-0.407,0.764-0.62,1.258-0.551l27.228,3.813c7.37,1.031,12.93,7.422,12.93,14.863
			v122.089C1061.757,1067.272,1054.062,1074.967,1044.603,1074.967z M964.478,919.754l-26.442,3.703
			c-6.083,0.852-10.67,6.126-10.67,12.268v122.089c0,8.012,6.518,14.53,14.532,14.53h102.704c8.014,0,14.532-6.518,14.532-14.53
			V935.725c0-6.142-4.587-11.416-10.67-12.268l-26.44-3.703c-6.697,9.205-17.393,14.678-28.773,14.678
			S971.176,928.959,964.478,919.754z"/>
	</g>
	<g id="XMLID_207_">
		<path id="XMLID_208_" style="fill:#FFFFFF;" d="M1021.418,910.695c-6.187,8.921-16.487,14.774-28.166,14.774
			c-11.679,0-21.979-5.853-28.166-14.774l-27.23,3.812c-6.766,0.947-11.799,6.735-11.799,13.566v122.088
			c0,8.75,7.093,15.843,15.843,15.843h51.352h51.352c8.75,0,15.843-7.093,15.843-15.843V928.074c0-6.832-5.034-12.619-11.799-13.566
			L1021.418,910.695z"/>
	</g>
	<g id="XMLID_205_">
		<path id="XMLID_2_" style="fill:#231F20;" d="M1044.603,1067.315H941.898c-9.459,0-17.154-7.695-17.154-17.153V928.073
			c0-7.441,5.559-13.831,12.93-14.863l27.23-3.813c0.48-0.065,0.976,0.142,1.258,0.551c6.172,8.898,16.298,14.209,27.09,14.209
			c10.792,0,20.918-5.311,27.09-14.209c0.282-0.409,0.764-0.616,1.258-0.551l27.228,3.813c7.37,1.031,12.93,7.422,12.93,14.863
			v122.089C1061.757,1059.62,1054.062,1067.315,1044.603,1067.315z M964.478,912.102l-26.442,3.703
			c-6.083,0.852-10.67,6.126-10.67,12.268v122.089c0,8.012,6.518,14.53,14.532,14.53h102.704c8.014,0,14.532-6.518,14.532-14.53
			V928.073c0-6.142-4.587-11.416-10.67-12.268l-26.44-3.703c-6.697,9.205-17.393,14.678-28.773,14.678
			S971.176,921.307,964.478,912.102z"/>
	</g>
	<g id="XMLID_326_">
		<path id="XMLID_327_" style="fill:#231F20;" d="M1061.466,958.396c-6.187,8.921-16.488,14.774-28.166,14.774
			s-21.979-5.853-28.166-14.774l-27.23,3.812c-6.766,0.947-11.799,6.735-11.799,13.566v122.088c0,8.75,7.093,15.843,15.843,15.843
			h51.352h51.352c8.75,0,15.843-7.093,15.843-15.843V975.774c0-6.832-5.034-12.619-11.799-13.566L1061.466,958.396z"/>
	</g>
	<g id="XMLID_322_">
		<path id="XMLID_323_" style="fill:#231F20;" d="M1084.651,1115.016H981.947c-9.459,0-17.154-7.695-17.154-17.152V975.774
			c0-7.441,5.559-13.831,12.93-14.863l27.23-3.813c0.48-0.069,0.976,0.144,1.258,0.551c6.172,8.898,16.298,14.209,27.09,14.209
			s20.918-5.311,27.09-14.209c0.282-0.408,0.764-0.62,1.258-0.551l27.228,3.813c7.37,1.032,12.93,7.422,12.93,14.863v122.089
			C1101.806,1107.321,1094.111,1115.016,1084.651,1115.016z M1004.527,959.803l-26.442,3.703c-6.083,0.852-10.67,6.126-10.67,12.268
			v122.089c0,8.012,6.518,14.53,14.532,14.53h102.704c8.014,0,14.532-6.518,14.532-14.53V975.774c0-6.142-4.587-11.416-10.67-12.268
			l-26.44-3.703c-6.697,9.205-17.393,14.678-28.773,14.678C1021.92,974.481,1011.224,969.008,1004.527,959.803z"/>
	</g>
	<g id="XMLID_320_">
		<path id="XMLID_321_" style="fill:#FFFFFF;" d="M1061.466,950.744c-6.187,8.921-16.488,14.774-28.166,14.774
			s-21.979-5.853-28.166-14.774l-27.23,3.812c-6.766,0.947-11.799,6.735-11.799,13.566v122.088c0,8.75,7.093,15.843,15.843,15.843
			h51.352h51.352c8.75,0,15.843-7.093,15.843-15.843V968.122c0-6.832-5.034-12.619-11.799-13.566L1061.466,950.744z"/>
	</g>
	<g id="XMLID_203_">
		<path id="XMLID_317_" style="fill:#231F20;" d="M1084.651,1107.364H981.947c-9.459,0-17.154-7.695-17.154-17.152V968.122
			c0-7.441,5.559-13.831,12.93-14.863l27.23-3.813c0.48-0.065,0.976,0.142,1.258,0.551c6.172,8.898,16.298,14.21,27.09,14.21
			s20.918-5.311,27.09-14.21c0.282-0.409,0.764-0.616,1.258-0.551l27.228,3.813c7.37,1.032,12.93,7.422,12.93,14.863v122.089
			C1101.806,1099.668,1094.111,1107.364,1084.651,1107.364z M1004.527,952.151l-26.442,3.703c-6.083,0.852-10.67,6.126-10.67,12.268
			v122.089c0,8.012,6.518,14.53,14.532,14.53h102.704c8.014,0,14.532-6.518,14.532-14.53V968.122c0-6.142-4.587-11.416-10.67-12.268
			l-26.44-3.703c-6.697,9.205-17.393,14.678-28.773,14.678C1021.92,966.829,1011.224,961.356,1004.527,952.151z"/>
	</g>
</g>
<g>
	<g id="XMLID_14_">
		<path id="XMLID_11_" style="fill:#FFFFFF;" d="M255.533,122.589c-6.187,8.921-16.487,14.774-28.166,14.774
			c-11.679,0-21.979-5.853-28.166-14.774l-39.029,5.464v174.036h67.195h67.195V128.053L255.533,122.589z"/>
		<polygon id="XMLID_10_" style="fill:#E0F5FE;" points="160.171,128.053 116.494,160.979 142.029,197.936 160.171,186.513 		"/>
		<polygon id="XMLID_6_" style="fill:#E0F5FE;" points="294.562,128.053 338.239,160.979 312.705,197.936 294.562,186.513 		"/>
		<path id="XMLID_3_" style="fill:#231F20;" d="M142.029,199.246c-0.416,0-0.826-0.198-1.079-0.565l-25.534-36.958
			c-0.4-0.579-0.272-1.368,0.289-1.791l43.677-32.925c0.396-0.299,0.928-0.348,1.373-0.126c0.445,0.222,0.725,0.675,0.725,1.172
			v58.46c0,0.45-0.231,0.869-0.612,1.109l-18.143,11.423C142.51,199.181,142.269,199.246,142.029,199.246z M118.287,161.268
			l24.106,34.891l16.468-10.369v-55.107L118.287,161.268z"/>
		<path id="XMLID_7_" style="fill:#231F20;" d="M312.704,199.246c-0.239,0-0.48-0.065-0.697-0.201l-18.143-11.423
			c-0.381-0.24-0.612-0.659-0.612-1.109v-58.46c0-0.497,0.281-0.951,0.725-1.172c0.444-0.219,0.976-0.171,1.373,0.126l43.677,32.925
			c0.561,0.423,0.689,1.213,0.289,1.791l-25.534,36.958C313.53,199.048,313.12,199.246,312.704,199.246z M295.872,185.79
			l16.468,10.369l24.106-34.891l-40.574-30.585V185.79z"/>
		<path id="XMLID_75_" style="fill:#231F20;" d="M294.562,303.398H160.171c-0.723,0-1.31-0.587-1.31-1.31V128.053
			c0-0.654,0.481-1.207,1.128-1.297l39.03-5.465c0.5-0.066,0.978,0.146,1.259,0.55c6.17,8.899,16.297,14.211,27.089,14.211
			c10.792,0,20.919-5.312,27.09-14.211c0.282-0.406,0.759-0.623,1.259-0.55l39.029,5.465c0.647,0.091,1.128,0.644,1.128,1.297
			v174.035C295.872,302.812,295.286,303.398,294.562,303.398z M161.481,300.778h131.771V129.193l-37.111-5.196
			c-6.698,9.204-17.394,14.676-28.774,14.676c-11.381,0-22.076-5.472-28.773-14.676l-37.112,5.196V300.778z"/>
	</g>
	<g id="XMLID_26_">
		<path id="XMLID_25_" style="fill:#FFFFFF;" d="M350.781,302.379H108.835c-7.781,0-14.089-6.308-14.089-14.089l0,0
			c0-7.781,6.308-14.089,14.089-14.089h241.946c7.781,0,14.089,6.308,14.089,14.089l0,0
			C364.87,296.071,358.562,302.379,350.781,302.379z"/>
		<polygon id="XMLID_24_" style="fill:#FFFFFF;" points="229.808,302.379 108.835,302.379 118.936,383.013 229.808,383.013 
			340.68,383.013 350.781,302.379 		"/>
		<polygon id="XMLID_16_" style="fill:#E0F5FE;" points="116.494,363.526 118.936,383.013 229.808,383.013 340.68,383.013 
			343.121,363.526 		"/>
		<path id="XMLID_9_" style="fill:#E0F5FE;" d="M215.718,302.379H108.835c-7.781,0-14.089-6.308-14.089-14.089l0,0
			c0-7.781,6.308-14.089,14.089-14.089h106.884c7.781,0,14.089,6.308,14.089,14.089l0,0
			C229.808,296.071,223.5,302.379,215.718,302.379z"/>
		<path id="XMLID_13_" style="fill:#231F20;" d="M350.781,303.689H108.835c-8.492,0-15.399-6.908-15.399-15.399
			s6.908-15.4,15.399-15.4h241.946c8.492,0,15.399,6.908,15.399,15.4S359.273,303.689,350.781,303.689z M108.835,275.51
			c-7.047,0-12.779,5.733-12.779,12.779c0,7.047,5.733,12.779,12.779,12.779h241.946c7.047,0,12.779-5.733,12.779-12.779
			c0-7.047-5.733-12.779-12.779-12.779H108.835z"/>
		<path id="XMLID_12_" style="fill:#231F20;" d="M340.68,384.323H118.936c-0.66,0-1.218-0.492-1.3-1.148l-10.101-80.634
			c-0.046-0.372,0.069-0.748,0.318-1.03c0.249-0.281,0.606-0.443,0.982-0.443h241.946c0.376,0,0.733,0.161,0.982,0.443
			c0.249,0.282,0.364,0.658,0.318,1.03l-10.101,80.634C341.898,383.831,341.34,384.323,340.68,384.323z M120.092,381.703h219.431
			l9.773-78.014H110.319L120.092,381.703z"/>
	</g>
	<g id="XMLID_23_">
		
			<ellipse id="XMLID_22_" transform="matrix(0.2307 -0.973 0.973 0.2307 -37.9207 349.9477)" style="fill:#E0F5FE;" cx="202.345" cy="198.955" rx="9.394" ry="9.394"/>
		<circle id="XMLID_21_" style="fill:#E0F5FE;" cx="265.853" cy="216.256" r="3.917"/>
		
			<ellipse id="XMLID_20_" transform="matrix(0.9246 -0.3809 0.3809 0.9246 -55.4871 120.9872)" style="fill:#E0F5FE;" cx="277.895" cy="200.665" rx="7.551" ry="7.551"/>
		<path id="XMLID_19_" style="fill:#E0F5FE;" d="M347.002,274.2c2.37-4.115,3.746-8.875,3.746-13.965
			c0-15.494-12.56-28.054-28.054-28.054c-9.316,0-17.547,4.56-22.649,11.548c-0.943-9.699-9.115-17.282-19.061-17.282
			c-9.269,0-16.998,6.583-18.772,15.328c-1.892-2.16-4.108-4.018-6.576-5.515c0.308-1.312,0.487-2.674,0.487-4.08
			c0-9.846-7.982-17.828-17.829-17.828c-9.846,0-17.829,7.982-17.829,17.828c0,2.667,0.602,5.188,1.652,7.46
			c-3.714,3.429-6.499,7.834-7.936,12.825c-3.215-2.804-7.407-4.516-12.008-4.516c-0.882,0-1.742,0.084-2.59,0.204
			c0-0.069,0.01-0.135,0.01-0.204c0-18.555-15.042-33.598-33.598-33.598c-16.266,0-29.828,11.56-32.928,26.912
			c-0.225-0.006-0.443-0.034-0.669-0.034c-12.995,0-23.529,10.534-23.529,23.529c0,3.36,0.716,6.549,1.985,9.44H347.002z"/>
		<path id="XMLID_15_" style="fill:#231F20;" d="M202.346,209.659c-5.903,0-10.704-4.801-10.704-10.704
			c0-5.903,4.801-10.704,10.704-10.704c5.903,0,10.704,4.801,10.704,10.704C213.05,204.858,208.249,209.659,202.346,209.659z
			 M202.346,190.871c-4.458,0-8.084,3.626-8.084,8.084c0,4.458,3.626,8.084,8.084,8.084c4.458,0,8.084-3.626,8.084-8.084
			C210.43,194.497,206.804,190.871,202.346,190.871z"/>
		<path id="XMLID_18_" style="fill:#231F20;" d="M265.853,221.483c-2.882,0-5.227-2.345-5.227-5.227
			c0-2.883,2.345-5.228,5.227-5.228c2.883,0,5.228,2.345,5.228,5.228C271.081,219.138,268.736,221.483,265.853,221.483z
			 M265.853,213.648c-1.437,0-2.606,1.169-2.606,2.607c0,1.437,1.169,2.606,2.606,2.606c1.438,0,2.607-1.169,2.607-2.606
			C268.46,214.818,267.291,213.648,265.853,213.648z"/>
		<path id="XMLID_17_" style="fill:#231F20;" d="M277.895,209.527c-4.886,0-8.861-3.976-8.861-8.862
			c0-4.886,3.975-8.862,8.861-8.862c4.886,0,8.862,3.976,8.862,8.862C286.757,205.552,282.781,209.527,277.895,209.527z
			 M277.895,194.424c-3.441,0-6.24,2.8-6.24,6.242c0,3.441,2.799,6.242,6.24,6.242c3.441,0,6.242-2.8,6.242-6.242
			C284.137,197.224,281.336,194.424,277.895,194.424z"/>
		<path id="XMLID_32_" style="fill:#231F20;" d="M347.001,275.51H110.853c-0.52,0-0.991-0.307-1.2-0.784
			c-1.39-3.167-2.095-6.52-2.095-9.966c0-13.571,10.939-24.634,24.462-24.837c3.68-15.642,17.793-26.88,33.975-26.88
			c18.827,0,34.219,14.981,34.885,33.648c0.449-0.034,0.874-0.051,1.292-0.051c4.075,0,8.036,1.279,11.343,3.633
			c1.485-4.112,3.888-7.856,7.036-10.95c-0.927-2.286-1.396-4.685-1.396-7.142c0-10.553,8.585-19.138,19.138-19.138
			c10.554,0,19.139,8.585,19.139,19.138c0,1.132-0.109,2.291-0.327,3.456c1.596,1.038,3.083,2.223,4.442,3.542
			c2.732-8.263,10.555-14.04,19.435-14.04c9.575,0,17.653,6.492,19.865,15.521c5.544-6.176,13.512-9.789,21.846-9.789
			c16.192,0,29.364,13.173,29.364,29.365c0,5.11-1.355,10.164-3.921,14.618C347.903,275.26,347.47,275.51,347.001,275.51z
			 M111.726,272.89h234.506c2.099-3.894,3.206-8.252,3.206-12.654c0-14.747-11.998-26.745-26.744-26.745
			c-8.486,0-16.557,4.116-21.592,11.011c-0.321,0.44-0.884,0.634-1.404,0.491c-0.525-0.144-0.906-0.596-0.959-1.137
			c-0.891-9.178-8.525-16.098-17.757-16.098c-8.455,0-15.81,6.005-17.487,14.278c-0.099,0.488-0.467,0.878-0.948,1.006
			c-0.478,0.127-0.993-0.028-1.322-0.404c-1.804-2.059-3.914-3.828-6.271-5.258c-0.484-0.294-0.725-0.867-0.596-1.419
			c0.3-1.28,0.453-2.551,0.453-3.781c0-9.108-7.41-16.518-16.519-16.518c-9.108,0-16.518,7.41-16.518,16.518
			c0,2.388,0.515,4.713,1.531,6.911c0.238,0.516,0.116,1.126-0.301,1.512c-3.605,3.329-6.221,7.557-7.565,12.225
			c-0.124,0.431-0.459,0.768-0.889,0.895c-0.431,0.125-0.894,0.025-1.231-0.27c-3.099-2.704-7.058-4.193-11.147-4.193
			c-0.725,0-1.489,0.061-2.406,0.192c-0.378,0.055-0.762-0.058-1.05-0.314c-0.288-0.253-0.451-0.619-0.445-1.002
			c0-0.018,0.01-0.189,0.011-0.207c0-17.783-14.484-32.267-32.287-32.267c-15.31,0-28.618,10.877-31.644,25.861
			c-0.127,0.626-0.622,1.062-1.325,1.051l-0.34-0.02c-0.096-0.007-0.193-0.015-0.29-0.015c-12.252,0-22.219,9.968-22.219,22.22
			C110.178,267.559,110.699,270.289,111.726,272.89z"/>
	</g>
</g>
<g>
	<rect id="XMLID_36_" x="517.35" y="135.398" style="fill:#FFFFFF;" width="171.265" height="237.871"/>
	<rect id="XMLID_38_" x="517.35" y="135.398" style="fill:#E0F5FE;" width="171.265" height="45.357"/>
	<circle id="XMLID_34_" style="fill:#E0F5FE;" cx="602.982" cy="268.445" r="65.515"/>
	<rect id="XMLID_37_" x="517.35" y="348.743" style="fill:#E0F5FE;" width="171.265" height="24.526"/>
	
		<ellipse id="XMLID_41_" transform="matrix(0.2287 -0.9735 0.9735 0.2287 263.8597 650.2007)" style="fill:#FFFFFF;" cx="542.266" cy="158.581" rx="10.499" ry="10.499"/>
	
		<ellipse id="XMLID_40_" transform="matrix(0.7071 -0.7071 0.7071 0.7071 56.0424 452.4601)" style="fill:#FFFFFF;" cx="574.189" cy="158.581" rx="10.499" ry="10.499"/>
	<rect id="XMLID_39_" x="626.26" y="150.327" style="fill:#FFFFFF;" width="49.724" height="16.509"/>
	<path id="XMLID_29_" style="fill:#231F20;" d="M602.982,335.27c-36.847,0-66.825-29.978-66.825-66.826s29.977-66.826,66.825-66.826
		c36.849,0,66.826,29.978,66.826,66.826S639.83,335.27,602.982,335.27z M602.982,204.24c-35.403,0-64.204,28.803-64.204,64.205
		s28.802,64.205,64.204,64.205c35.404,0,64.204-28.803,64.204-64.205S638.385,204.24,602.982,204.24z"/>
	<circle id="XMLID_35_" style="fill:#FFFFFF;" cx="602.982" cy="268.445" r="56.78"/>
	<path id="XMLID_33_" style="fill:#231F20;" d="M542.266,170.39c-6.512,0-11.81-5.298-11.81-11.81
		c0-6.511,5.298-11.809,11.81-11.809c6.512,0,11.81,5.298,11.81,11.809C554.076,165.093,548.778,170.39,542.266,170.39z
		 M542.266,149.392c-5.067,0-9.19,4.122-9.19,9.189c0,5.067,4.122,9.189,9.19,9.189s9.189-4.122,9.189-9.189
		C551.455,153.514,547.333,149.392,542.266,149.392z"/>
	<path id="XMLID_30_" style="fill:#231F20;" d="M574.189,170.39c-6.512,0-11.81-5.298-11.81-11.81
		c0-6.511,5.298-11.809,11.81-11.809c6.512,0,11.81,5.298,11.81,11.809C585.998,165.093,580.701,170.39,574.189,170.39z
		 M574.189,149.392c-5.067,0-9.19,4.122-9.19,9.189c0,5.067,4.122,9.189,9.19,9.189s9.19-4.122,9.19-9.189
		C583.378,153.514,579.256,149.392,574.189,149.392z"/>
	<path id="XMLID_31_" style="fill:#231F20;" d="M688.614,182.065H517.35c-0.724,0-1.31-0.587-1.31-1.31v-45.357
		c0-0.723,0.587-1.31,1.31-1.31h171.264c0.724,0,1.311,0.587,1.311,1.31v45.357C689.925,181.478,689.339,182.065,688.614,182.065z
		 M518.66,179.445h168.643v-42.736H518.66V179.445z"/>
	<path id="XMLID_27_" style="fill:#231F20;" d="M675.984,168.145h-49.723c-0.724,0-1.311-0.587-1.311-1.31v-16.509
		c0-0.723,0.587-1.31,1.311-1.31h49.723c0.724,0,1.311,0.587,1.311,1.31v16.509C677.295,167.558,676.708,168.145,675.984,168.145z
		 M627.572,165.525h47.101v-13.889h-47.101V165.525z"/>
	<path id="XMLID_28_" style="fill:#231F20;" d="M688.614,374.579H517.35c-0.724,0-1.31-0.587-1.31-1.31V135.398
		c0-0.723,0.587-1.31,1.31-1.31h171.264c0.724,0,1.311,0.587,1.311,1.31v237.871C689.925,373.993,689.339,374.579,688.614,374.579z
		 M518.66,371.959h168.643V136.708H518.66V371.959z"/>
	<path id="XMLID_45_" style="fill:#E0F5FE;" d="M548.025,282.759c6.345,24.429,28.543,42.466,54.957,42.466
		c25.914,0,47.757-17.367,54.567-41.091l-4.254,2.436c-15.115,8.654-33.586,9.056-49.063,1.067h0l-0.919-0.52
		C586.311,277.489,566.054,276.019,548.025,282.759z"/>
	<path id="XMLID_49_" style="fill:#231F20;" d="M602.982,326.535c-32.031,0-58.09-26.059-58.09-58.091
		c0-32.031,26.058-58.09,58.09-58.09c32.031,0,58.092,26.059,58.092,58.09C661.073,300.476,635.013,326.535,602.982,326.535z
		 M602.982,212.975c-30.586,0-55.469,24.883-55.469,55.47s24.883,55.471,55.469,55.471c30.586,0,55.47-24.884,55.47-55.471
		S633.568,212.975,602.982,212.975z"/>
	<path id="XMLID_48_" style="fill:#E0F5FE;" d="M635.119,254.844c-5.164,0-9.351,4.187-9.351,9.351c0,5.164,4.187,9.351,9.351,9.351
		s9.351-4.186,9.351-9.351C644.469,259.031,640.283,254.844,635.119,254.844z M638.859,264.195c-1.328,0-2.405-1.077-2.405-2.404
		c0-1.328,1.077-2.405,2.405-2.405c1.328,0,2.404,1.077,2.404,2.405C641.263,263.118,640.187,264.195,638.859,264.195z"/>
	<circle id="XMLID_42_" style="fill:#E0F5FE;" cx="620.033" cy="271.384" r="2.939"/>
	<circle id="XMLID_44_" style="fill:#E0F5FE;" cx="630.03" cy="280.48" r="5.331"/>
</g>
<g>
	<path id="XMLID_55_" style="fill:#FFFFFF;" d="M1056.279,254.665l-8.977-81.378l-27.348-24.499h-37.069h-29.231H891.94
		l-11.68,105.877c-0.654,4.938-0.981,9.913-0.981,14.894v65.705c0,12.415,10.064,22.479,22.479,22.479h51.896h29.231h51.896
		c12.415,0,22.479-10.064,22.479-22.479v-65.705C1057.26,264.578,1056.932,259.602,1056.279,254.665z"/>
	<path id="XMLID_54_" style="fill:#E0F5FE;" d="M1005.509,327.09H931.03c-13.771,0-24.934-11.164-24.934-24.935v-13.595
		c0-13.771,11.164-24.934,24.934-24.934h74.479c13.771,0,24.934,11.163,24.934,24.934v13.595
		C1030.443,315.927,1019.28,327.09,1005.509,327.09z"/>
	<path id="XMLID_51_" style="fill:#231F20;" d="M1034.781,359.053H901.758c-13.117,0-23.791-10.672-23.791-23.789v-65.705
		c0-5.015,0.335-10.084,0.994-15.067l11.676-105.848c0.075-0.664,0.636-1.166,1.303-1.166h128.013c0.323,0,0.634,0.119,0.874,0.334
		l27.348,24.498c0.24,0.216,0.394,0.512,0.429,0.833l8.975,81.365c0.658,4.977,0.992,10.042,0.992,15.052v65.705
		C1058.572,348.381,1047.898,359.053,1034.781,359.053z M893.114,150.098l-11.55,104.71c-0.648,4.897-0.975,9.85-0.975,14.751
		v65.705c0,11.672,9.497,21.168,21.169,21.168h133.023c11.672,0,21.168-9.496,21.168-21.168v-65.705
		c0-4.901-0.327-9.854-0.97-14.722c0-0.01-0.002-0.019-0.004-0.029l-8.922-80.88l-26.602-23.83H893.114z"/>
	<path id="XMLID_8_" style="fill:#231F20;" d="M1005.51,328.401h-74.48c-14.471,0-26.246-11.773-26.246-26.244v-13.595
		c0-14.471,11.774-26.245,26.246-26.245h74.48c14.471,0,26.246,11.773,26.246,26.245v13.595
		C1031.755,316.628,1019.981,328.401,1005.51,328.401z M931.029,264.937c-13.026,0-23.623,10.598-23.623,23.624v13.595
		c0,13.026,10.597,23.624,23.623,23.624h74.48c13.026,0,23.623-10.598,23.623-23.624v-13.595c0-13.026-10.597-23.624-23.623-23.624
		H931.029z"/>
	<g id="XMLID_59_">
		<path id="XMLID_66_" style="fill:#E0F5FE;" d="M894.534,194.127h-10.227c-4.903,0-8.877,3.974-8.877,8.877v15.116h27.981v-15.116
			C903.411,198.101,899.437,194.127,894.534,194.127z"/>
		<path id="XMLID_50_" style="fill:#231F20;" d="M903.411,219.43H875.43c-0.724,0-1.311-0.587-1.311-1.31v-15.117
			c0-5.617,4.571-10.187,10.188-10.187h10.227c5.618,0,10.19,4.569,10.19,10.187v15.117
			C904.723,218.844,904.136,219.43,903.411,219.43z M876.741,216.81h25.36v-13.807c0-4.173-3.394-7.566-7.567-7.566h-10.227
			c-4.171,0-7.565,3.394-7.565,7.566V216.81z"/>
		<path id="XMLID_58_" style="fill:#FFFFFF;" d="M907.748,218.12h-36.656c-1.407,0-2.547,1.14-2.547,2.547l0,0
			c0,1.407,1.14,2.547,2.547,2.547h36.656c1.407,0,2.547-1.14,2.547-2.547l0,0C910.295,219.26,909.155,218.12,907.748,218.12z"/>
		<path id="XMLID_52_" style="fill:#FFFFFF;" d="M917.227,290.479c0-5.806,2.969-10.918,7.471-13.902
			c5.779-3.83,9.195-10.349,9.195-17.283v-3.37c0-12.361-6.372-23.243-16.665-29.018l-6.579-3.691h-20.613h-0.877h-20.613
			l-6.579,3.691c-10.293,5.775-16.665,16.657-16.665,28.459v3.927c0,6.933,3.416,13.455,9.195,17.286
			c4.502,2.984,7.471,8.096,7.471,13.902s-2.969,10.918-7.471,13.902c-5.779,3.83-9.195,10.343-9.195,17.277v18.334
			c0,10.951,6.811,17.752,15.213,17.752h28.644h0.877h28.644c8.402,0,15.213-6.811,15.213-15.213v-20.864
			c0-6.933-3.416-13.455-9.195-17.286C920.195,301.396,917.227,296.284,917.227,290.479z"/>
		
			<ellipse id="XMLID_63_" transform="matrix(0.8998 -0.4363 0.4363 0.8998 -24.568 414.3974)" style="fill:#E0F5FE;" cx="890.035" cy="260.694" rx="18.125" ry="18.125"/>
		<path id="XMLID_43_" style="fill:#231F20;" d="M890.035,280.129c-10.717,0-19.436-8.718-19.436-19.435
			c0-10.717,8.719-19.435,19.436-19.435s19.436,8.718,19.436,19.435C909.471,271.41,900.752,280.129,890.035,280.129z
			 M890.035,243.878c-9.272,0-16.814,7.544-16.814,16.815c0,9.271,7.542,16.815,16.814,16.815c9.272,0,16.814-7.544,16.814-16.815
			C906.849,251.422,899.307,243.878,890.035,243.878z"/>
		<path id="XMLID_60_" style="fill:#231F20;" d="M907.748,224.525h-36.656c-2.128,0-3.858-1.73-3.858-3.857
			c0-2.127,1.73-3.857,3.858-3.857h36.656c2.128,0,3.859,1.73,3.859,3.857C911.607,222.795,909.876,224.525,907.748,224.525z
			 M871.093,219.43c-0.683,0-1.236,0.555-1.236,1.237c0,0.682,0.553,1.237,1.236,1.237h36.656c0.683,0,1.236-0.555,1.236-1.237
			c0-0.682-0.553-1.237-1.236-1.237H871.093z"/>
		<path id="XMLID_71_" style="fill:#231F20;" d="M918.68,359.053h-58.167c-9.575,0-16.524-8.017-16.524-19.063v-18.334
			c0-7.44,3.658-14.308,9.782-18.368c4.311-2.857,6.884-7.646,6.884-12.81c0-5.164-2.573-9.952-6.884-12.809
			c-6.124-4.06-9.782-10.931-9.782-18.378v-3.926c0-12.259,6.644-23.602,17.336-29.602l6.579-3.691
			c0.197-0.11,0.417-0.167,0.642-0.167h42.103c0.224,0,0.445,0.057,0.642,0.167l6.579,3.691c10.853,6.09,17.334,17.365,17.334,30.16
			v3.371c0,7.447-3.658,14.316-9.782,18.375c-4.309,2.856-6.882,7.645-6.882,12.809c0,5.164,2.573,9.952,6.882,12.809
			c6.124,4.06,9.782,10.931,9.782,18.379v20.863C935.203,351.64,927.791,359.053,918.68,359.053z M868.888,224.525l-6.28,3.524
			c-9.869,5.537-15.997,16.004-15.997,27.316v3.926c0,6.566,3.217,12.62,8.609,16.193c5.046,3.344,8.058,8.948,8.058,14.994
			c0,6.046-3.012,11.65-8.058,14.994c-5.392,3.574-8.609,9.623-8.609,16.184v18.334c0,9.682,5.717,16.443,13.902,16.443h58.167
			c7.666,0,13.9-6.237,13.9-13.903v-20.863c0-6.567-3.217-12.621-8.609-16.194c-5.044-3.345-8.056-8.949-8.056-14.994
			c0-6.045,3.012-11.649,8.056-14.994c5.392-3.572,8.609-9.625,8.609-16.19v-3.371c0-11.834-5.979-22.255-15.995-27.874l-6.28-3.524
			H868.888z"/>
	</g>
	<path id="XMLID_61_" style="fill:#231F20;" d="M968.269,199.96c-20.068,0-36.394-16.326-36.394-36.393
		c0-1.113,0.902-2.016,2.016-2.016c1.114,0,2.016,0.903,2.016,2.016c0,17.844,14.519,32.361,32.362,32.361
		c17.844,0,32.362-14.517,32.362-32.361c0-1.113,0.902-2.016,2.016-2.016c1.114,0,2.016,0.903,2.016,2.016
		C1004.663,183.634,988.337,199.96,968.269,199.96z"/>
</g>
<g>
	<path id="XMLID_56_" style="fill:#231F20;" d="M617.095,549.677c-73.354,0-110.211-17.253-111.744-17.987
		c-1.003-0.48-1.427-1.684-0.947-2.687c0.48-1.006,1.682-1.429,2.688-0.95c0.368,0.176,37.673,17.592,110.003,17.592
		c72.329,0,109.634-17.416,110.002-17.592c1.006-0.48,2.209-0.056,2.687,0.95c0.48,1.004,0.057,2.207-0.947,2.687
		C727.305,532.424,690.447,549.677,617.095,549.677z"/>
	<g id="XMLID_79_">
		<path id="XMLID_85_" style="fill:#FFFFFF;" d="M645.26,551.967c-6.187,8.921-16.487,14.774-28.166,14.774
			c-11.679,0-21.979-5.853-28.166-14.774l-39.029,5.464v174.036h67.195h67.195V557.431L645.26,551.967z"/>
		<polygon id="XMLID_84_" style="fill:#E0F5FE;" points="549.899,557.431 506.222,590.356 531.756,627.314 549.899,615.891 		"/>
		<polygon id="XMLID_83_" style="fill:#E0F5FE;" points="684.289,557.431 727.966,590.356 702.432,627.314 684.289,615.891 		"/>
		<path id="XMLID_81_" style="fill:#231F20;" d="M531.757,628.625c-0.416,0-0.826-0.199-1.079-0.567l-25.535-36.957
			c-0.4-0.579-0.272-1.368,0.289-1.792l43.678-32.925c0.397-0.299,0.929-0.349,1.373-0.126c0.445,0.221,0.725,0.675,0.725,1.172
			v58.459c0,0.451-0.231,0.868-0.612,1.108l-18.143,11.424C532.238,628.558,531.997,628.625,531.757,628.625z M508.014,590.645
			l24.107,34.891l16.468-10.369V560.06L508.014,590.645z"/>
		<path id="XMLID_80_" style="fill:#231F20;" d="M702.43,628.625c-0.238,0-0.48-0.067-0.697-0.203l-18.143-11.424
			c-0.38-0.24-0.612-0.658-0.612-1.108v-58.459c0-0.497,0.281-0.951,0.726-1.172c0.445-0.222,0.977-0.172,1.374,0.126l43.678,32.925
			c0.561,0.423,0.687,1.213,0.289,1.792l-25.535,36.957C703.257,628.426,702.847,628.625,702.43,628.625z M685.6,615.167
			l16.467,10.369l24.106-34.891L685.6,560.06V615.167z"/>
		<path id="XMLID_89_" style="fill:#231F20;" d="M684.289,732.778h-134.39c-0.723,0-1.31-0.587-1.31-1.311V557.431
			c0-0.654,0.481-1.207,1.128-1.297l39.029-5.465c0.496-0.071,0.977,0.146,1.259,0.55c6.17,8.899,16.298,14.211,27.09,14.211
			c10.792,0,20.919-5.312,27.088-14.21c0.281-0.407,0.764-0.628,1.258-0.551l39.03,5.465c0.648,0.091,1.13,0.644,1.13,1.297v174.036
			C685.6,732.192,685.014,732.778,684.289,732.778z M551.209,730.156h131.769V558.571l-37.112-5.196
			c-6.695,9.204-17.391,14.676-28.771,14.676c-11.383,0-22.077-5.472-28.774-14.676l-37.111,5.196V730.156z"/>
	</g>
	<rect id="XMLID_70_" x="574.959" y="533.352" style="fill:#FFFFFF;" width="13.953" height="32.76"/>
	<rect id="XMLID_69_" x="644.726" y="533.352" style="fill:#FFFFFF;" width="13.953" height="32.76"/>
	<path id="XMLID_68_" style="fill:#231F20;" d="M588.912,567.623h-13.954c-0.835,0-1.512-0.677-1.512-1.512v-32.76
		c0-0.835,0.677-1.512,1.512-1.512h13.954c0.835,0,1.512,0.677,1.512,1.512v32.76C590.424,566.946,589.747,567.623,588.912,567.623z
		 M576.47,564.6h10.93v-29.736h-10.93V564.6z"/>
	<path id="XMLID_162_" style="fill:#231F20;" d="M658.68,567.623h-13.954c-0.835,0-1.512-0.677-1.512-1.512v-32.76
		c0-0.835,0.677-1.512,1.512-1.512h13.954c0.835,0,1.512,0.677,1.512,1.512v32.76C660.192,566.946,659.514,567.623,658.68,567.623z
		 M646.238,564.6h10.93v-29.736h-10.93V564.6z"/>
</g>
<g>
	<g id="XMLID_72_">
		<path id="XMLID_78_" style="fill:#FFFFFF;" d="M277.372,551.967c-6.187,8.921-16.487,14.774-28.166,14.774
			c-11.679,0-21.98-5.853-28.166-14.774l-39.029,5.464v174.036h67.195H316.4V557.431L277.372,551.967z"/>
		<polygon id="XMLID_77_" style="fill:#E0F5FE;" points="182.01,557.431 138.333,590.356 163.867,627.314 182.01,615.891 		"/>
		<polygon id="XMLID_76_" style="fill:#E0F5FE;" points="316.4,557.431 360.077,590.356 334.543,627.314 316.4,615.891 		"/>
		<path id="XMLID_74_" style="fill:#231F20;" d="M163.868,628.625c-0.416,0-0.826-0.199-1.079-0.567l-25.534-36.957
			c-0.4-0.579-0.272-1.368,0.289-1.792l43.677-32.925c0.397-0.299,0.927-0.349,1.373-0.126c0.445,0.221,0.725,0.675,0.725,1.172
			v58.459c0,0.451-0.231,0.868-0.612,1.108l-18.143,11.424C164.348,628.558,164.107,628.625,163.868,628.625z M140.126,590.645
			l24.106,34.891l16.468-10.369V560.06L140.126,590.645z"/>
		<path id="XMLID_73_" style="fill:#231F20;" d="M334.542,628.625c-0.239,0-0.48-0.067-0.697-0.203l-18.143-11.424
			c-0.381-0.24-0.612-0.658-0.612-1.108v-58.459c0-0.497,0.281-0.951,0.725-1.172c0.444-0.222,0.976-0.171,1.373,0.126
			l43.677,32.925c0.561,0.423,0.689,1.213,0.289,1.792l-25.534,36.957C335.368,628.426,334.958,628.625,334.542,628.625z
			 M317.71,615.167l16.468,10.369l24.106-34.891L317.71,560.06V615.167z"/>
		<path id="XMLID_82_" style="fill:#231F20;" d="M316.4,732.778H182.01c-0.723,0-1.31-0.587-1.31-1.311V557.431
			c0-0.654,0.481-1.207,1.128-1.297l39.029-5.465c0.496-0.071,0.978,0.146,1.259,0.55c6.171,8.899,16.298,14.211,27.09,14.211
			c10.791,0,20.919-5.312,27.089-14.211c0.281-0.406,0.762-0.629,1.259-0.55l39.029,5.465c0.647,0.091,1.128,0.644,1.128,1.297
			v174.036C317.71,732.192,317.124,732.778,316.4,732.778z M183.32,730.156h131.77V558.571l-37.111-5.196
			c-6.698,9.204-17.394,14.676-28.773,14.676c-11.38,0-22.076-5.472-28.774-14.676l-37.111,5.196V730.156z"/>
	</g>
	<g id="XMLID_99_">
		<path id="XMLID_97_" style="fill:#FC65C6;" d="M152.962,541.876c-2.859,0-3.444,3.602-2.821,7.024
			c0.623,3.422,2.821,5.086,2.821,5.086s2.198-1.664,2.821-5.086C156.406,545.478,155.821,541.876,152.962,541.876z"/>
		<path id="XMLID_94_" style="fill:#FC65C6;" d="M141.091,550.96c-0.565,2.802,2.85,4.088,6.328,4.153
			c3.477,0.065,5.543-1.761,5.543-1.761s-1.197-2.483-4.429-3.771C145.302,548.295,141.655,548.158,141.091,550.96z"/>
		<path id="XMLID_96_" style="fill:#FC65C6;" d="M145.553,562.542c2.241,1.775,4.936-0.685,6.572-3.755
			c1.636-3.069,0.946-5.739,0.946-5.739s-2.756-0.06-5.369,2.236C145.089,557.58,143.311,560.768,145.553,562.542z"/>
		<path id="XMLID_98_" style="fill:#FC65C6;" d="M160.194,562.542c-2.241,1.775-4.936-0.685-6.572-3.755s-0.946-5.739-0.946-5.739
			s2.756-0.06,5.369,2.236C160.658,557.58,162.435,560.768,160.194,562.542z"/>
		<path id="XMLID_95_" style="fill:#FC65C6;" d="M164.833,550.96c0.565,2.802-2.85,4.088-6.328,4.153
			c-3.477,0.065-5.543-1.761-5.543-1.761s1.197-2.483,4.429-3.771C160.622,548.295,164.268,548.158,164.833,550.96z"/>
		<path id="XMLID_93_" style="fill:#FFF200;" d="M155.783,553.352c0,1.558-1.263,2.821-2.821,2.821
			c-1.558,0-2.821-1.263-2.821-2.821c0-1.558,1.263-2.821,2.821-2.821C154.52,550.531,155.783,551.794,155.783,553.352z"/>
	</g>
	<g id="XMLID_129_">
		<path id="XMLID_135_" style="fill:#FC65C6;" d="M338.239,632.28c-2.859,0-3.445,3.602-2.821,7.024
			c0.623,3.422,2.821,5.086,2.821,5.086s2.198-1.664,2.821-5.086S341.098,632.28,338.239,632.28z"/>
		<path id="XMLID_134_" style="fill:#FC65C6;" d="M326.367,641.364c-0.565,2.802,2.85,4.088,6.328,4.153
			c3.478,0.065,5.543-1.761,5.543-1.761s-1.197-2.483-4.429-3.77C330.579,638.699,326.932,638.561,326.367,641.364z"/>
		<path id="XMLID_133_" style="fill:#FC65C6;" d="M330.83,652.946c2.241,1.775,4.936-0.685,6.572-3.755
			c1.636-3.069,0.946-5.739,0.946-5.739s-2.756-0.06-5.369,2.236C330.365,647.984,328.589,651.171,330.83,652.946z"/>
		<path id="XMLID_132_" style="fill:#FC65C6;" d="M345.471,652.946c-2.241,1.775-4.936-0.685-6.572-3.755s-0.946-5.739-0.946-5.739
			s2.756-0.06,5.369,2.236C345.935,647.984,347.712,651.171,345.471,652.946z"/>
		<path id="XMLID_131_" style="fill:#FC65C6;" d="M350.11,641.364c0.565,2.802-2.85,4.088-6.328,4.153
			c-3.478,0.065-5.543-1.761-5.543-1.761s1.197-2.483,4.429-3.77C345.899,638.699,349.545,638.561,350.11,641.364z"/>
		<path id="XMLID_130_" style="fill:#FFF200;" d="M341.06,643.756c0,1.558-1.263,2.821-2.821,2.821
			c-1.558,0-2.821-1.263-2.821-2.821s1.263-2.821,2.821-2.821C339.797,640.935,341.06,642.198,341.06,643.756z"/>
	</g>
	<g id="XMLID_101_">
		<path id="XMLID_107_" style="fill:#FC65C6;" d="M165.736,638.693c-1.992,0-2.4,2.51-1.966,4.894
			c0.434,2.384,1.966,3.544,1.966,3.544s1.531-1.16,1.966-3.544C168.136,641.202,167.728,638.693,165.736,638.693z"/>
		<path id="XMLID_106_" style="fill:#FC65C6;" d="M157.465,645.022c-0.393,1.953,1.986,2.848,4.409,2.894
			c2.423,0.045,3.862-1.227,3.862-1.227s-0.834-1.73-3.086-2.627C160.399,643.165,157.859,643.069,157.465,645.022z"/>
		<path id="XMLID_105_" style="fill:#FC65C6;" d="M160.574,653.092c1.561,1.237,3.439-0.477,4.579-2.616
			c1.14-2.139,0.659-3.998,0.659-3.998s-1.921-0.042-3.741,1.558C160.251,649.634,159.013,651.855,160.574,653.092z"/>
		<path id="XMLID_104_" style="fill:#FC65C6;" d="M170.775,653.092c-1.562,1.237-3.439-0.477-4.579-2.616s-0.659-3.998-0.659-3.998
			s1.921-0.042,3.741,1.558C171.099,649.634,172.337,651.855,170.775,653.092z"/>
		<path id="XMLID_103_" style="fill:#FC65C6;" d="M174.008,645.022c0.393,1.953-1.986,2.848-4.409,2.894
			c-2.423,0.045-3.862-1.227-3.862-1.227s0.834-1.73,3.086-2.627C171.073,643.165,173.614,643.069,174.008,645.022z"/>
		<path id="XMLID_102_" style="fill:#FFF200;" d="M167.702,646.688c0,1.086-0.88,1.966-1.966,1.966c-1.086,0-1.966-0.88-1.966-1.966
			c0-1.086,0.88-1.966,1.966-1.966C166.822,644.723,167.702,645.603,167.702,646.688z"/>
	</g>
	<g id="XMLID_136_">
		<path id="XMLID_142_" style="fill:#FC65C6;" d="M334.15,724.059c-1.992,0-2.4,2.51-1.966,4.894
			c0.434,2.384,1.966,3.544,1.966,3.544s1.532-1.16,1.966-3.544C336.55,726.569,336.142,724.059,334.15,724.059z"/>
		<path id="XMLID_141_" style="fill:#FC65C6;" d="M325.879,730.388c-0.393,1.953,1.986,2.848,4.409,2.894
			c2.423,0.045,3.862-1.227,3.862-1.227s-0.834-1.73-3.086-2.627C328.813,728.531,326.272,728.435,325.879,730.388z"/>
		<path id="XMLID_140_" style="fill:#FC65C6;" d="M328.988,738.458c1.561,1.237,3.439-0.477,4.579-2.616
			c1.14-2.139,0.659-3.998,0.659-3.998s-1.921-0.042-3.741,1.558C328.665,735.001,327.426,737.221,328.988,738.458z"/>
		<path id="XMLID_139_" style="fill:#FC65C6;" d="M339.189,738.458c-1.561,1.237-3.439-0.477-4.579-2.616
			c-1.14-2.139-0.659-3.998-0.659-3.998s1.92-0.042,3.741,1.558C339.512,735.001,340.751,737.221,339.189,738.458z"/>
		<path id="XMLID_138_" style="fill:#FC65C6;" d="M342.421,730.388c0.394,1.953-1.986,2.848-4.409,2.894
			c-2.423,0.045-3.862-1.227-3.862-1.227s0.834-1.73,3.086-2.627C339.487,728.531,342.028,728.435,342.421,730.388z"/>
		<path id="XMLID_137_" style="fill:#FFF200;" d="M336.116,732.055c0,1.086-0.88,1.966-1.966,1.966c-1.086,0-1.966-0.88-1.966-1.966
			c0-1.086,0.88-1.966,1.966-1.966C335.236,730.089,336.116,730.969,336.116,732.055z"/>
	</g>
	<g id="XMLID_108_">
		<path id="XMLID_114_" style="fill:#FC65C6;" d="M141.029,679.446c-2.83,0-3.409,3.565-2.792,6.951
			c0.617,3.387,2.792,5.034,2.792,5.034s2.175-1.647,2.792-5.034C144.438,683.011,143.858,679.446,141.029,679.446z"/>
		<path id="XMLID_113_" style="fill:#FC65C6;" d="M129.28,688.436c-0.559,2.774,2.821,4.046,6.263,4.11
			c3.442,0.064,5.486-1.743,5.486-1.743s-1.185-2.458-4.383-3.732C133.448,685.799,129.839,685.663,129.28,688.436z"/>
		<path id="XMLID_112_" style="fill:#FC65C6;" d="M133.696,699.899c2.218,1.757,4.886-0.678,6.505-3.716
			c1.619-3.038,0.936-5.68,0.936-5.68s-2.728-0.059-5.314,2.213C133.237,694.988,131.478,698.143,133.696,699.899z"/>
		<path id="XMLID_111_" style="fill:#FC65C6;" d="M148.187,699.899c-2.218,1.757-4.886-0.678-6.505-3.716
			c-1.619-3.038-0.936-5.68-0.936-5.68s2.728-0.059,5.314,2.213C148.646,694.988,150.405,698.143,148.187,699.899z"/>
		<path id="XMLID_110_" style="fill:#FC65C6;" d="M152.778,688.436c0.559,2.774-2.821,4.046-6.263,4.11
			c-3.442,0.064-5.486-1.743-5.486-1.743s1.185-2.458,4.383-3.732C148.61,685.799,152.219,685.663,152.778,688.436z"/>
		<path id="XMLID_109_" style="fill:#FFF200;" d="M143.821,690.804c0,1.542-1.25,2.792-2.792,2.792c-1.542,0-2.792-1.25-2.792-2.792
			s1.25-2.792,2.792-2.792C142.571,688.012,143.821,689.262,143.821,690.804z"/>
	</g>
	<g id="XMLID_143_">
		<path id="XMLID_149_" style="fill:#FC65C6;" d="M297.09,523.385c-2.829,0-3.409,3.565-2.792,6.951
			c0.617,3.387,2.792,5.034,2.792,5.034s2.175-1.647,2.792-5.034C300.499,526.95,299.92,523.385,297.09,523.385z"/>
		<path id="XMLID_148_" style="fill:#FC65C6;" d="M285.341,532.375c-0.559,2.774,2.821,4.046,6.263,4.11
			c3.442,0.064,5.486-1.743,5.486-1.743s-1.185-2.458-4.383-3.732C289.509,529.737,285.9,529.601,285.341,532.375z"/>
		<path id="XMLID_147_" style="fill:#FC65C6;" d="M289.757,543.838c2.218,1.757,4.886-0.678,6.505-3.716
			c1.619-3.038,0.936-5.68,0.936-5.68s-2.728-0.059-5.314,2.213C289.298,538.927,287.539,542.082,289.757,543.838z"/>
		<path id="XMLID_146_" style="fill:#FC65C6;" d="M304.248,543.838c-2.218,1.757-4.886-0.678-6.505-3.716s-0.936-5.68-0.936-5.68
			s2.728-0.059,5.314,2.213C304.707,538.927,306.466,542.082,304.248,543.838z"/>
		<path id="XMLID_145_" style="fill:#FC65C6;" d="M308.839,532.375c0.559,2.774-2.821,4.046-6.263,4.11
			c-3.442,0.064-5.486-1.743-5.486-1.743s1.185-2.458,4.383-3.732C304.671,529.737,308.28,529.601,308.839,532.375z"/>
		<path id="XMLID_144_" style="fill:#FFF200;" d="M299.882,534.743c0,1.542-1.25,2.792-2.792,2.792c-1.542,0-2.792-1.25-2.792-2.792
			s1.25-2.792,2.792-2.792C298.632,531.951,299.882,533.201,299.882,534.743z"/>
	</g>
	<g id="XMLID_115_">
		<path id="XMLID_121_" style="fill:#FC65C6;" d="M204.135,706.708c-2.122,0-2.557,2.674-2.094,5.214
			c0.463,2.54,2.094,3.775,2.094,3.775s1.632-1.235,2.094-3.775C206.692,709.382,206.257,706.708,204.135,706.708z"/>
		<path id="XMLID_120_" style="fill:#FC65C6;" d="M195.323,713.451c-0.419,2.08,2.116,3.035,4.697,3.083
			c2.581,0.048,4.115-1.307,4.115-1.307s-0.889-1.843-3.287-2.799C198.449,711.473,195.742,711.371,195.323,713.451z"/>
		<path id="XMLID_119_" style="fill:#FC65C6;" d="M198.635,722.048c1.663,1.318,3.664-0.509,4.878-2.787
			c1.214-2.278,0.702-4.26,0.702-4.26s-2.046-0.044-3.986,1.66C198.291,718.365,196.971,720.731,198.635,722.048z"/>
		<path id="XMLID_118_" style="fill:#FC65C6;" d="M209.503,722.048c-1.664,1.318-3.664-0.509-4.879-2.787
			c-1.214-2.278-0.702-4.26-0.702-4.26s2.046-0.044,3.986,1.66C209.848,718.365,211.167,720.731,209.503,722.048z"/>
		<path id="XMLID_117_" style="fill:#FC65C6;" d="M212.947,713.451c0.419,2.08-2.116,3.035-4.697,3.083
			c-2.581,0.048-4.115-1.307-4.115-1.307s0.889-1.843,3.287-2.799C209.821,711.473,212.527,711.371,212.947,713.451z"/>
		<circle id="XMLID_116_" style="fill:#FFF200;" cx="204.135" cy="715.227" r="2.094"/>
	</g>
	<g id="XMLID_122_">
		<path id="XMLID_128_" style="fill:#FC65C6;" d="M289.422,671.554c-1.704,0-2.053,2.147-1.682,4.187
			c0.371,2.04,1.682,3.032,1.682,3.032s1.31-0.992,1.682-3.032C291.475,673.701,291.126,671.554,289.422,671.554z"/>
		<path id="XMLID_127_" style="fill:#FC65C6;" d="M282.346,676.969c-0.337,1.671,1.699,2.437,3.772,2.476
			c2.073,0.039,3.304-1.05,3.304-1.05s-0.714-1.48-2.64-2.247C284.856,675.38,282.682,675.299,282.346,676.969z"/>
		<path id="XMLID_126_" style="fill:#FC65C6;" d="M285.006,683.873c1.336,1.058,2.943-0.408,3.918-2.238
			c0.975-1.83,0.564-3.421,0.564-3.421s-1.643-0.036-3.201,1.333C284.729,680.915,283.67,682.815,285.006,683.873z"/>
		<path id="XMLID_125_" style="fill:#FC65C6;" d="M293.733,683.873c-1.336,1.058-2.942-0.408-3.918-2.238
			c-0.975-1.83-0.564-3.421-0.564-3.421s1.643-0.036,3.201,1.333C294.01,680.915,295.069,682.815,293.733,683.873z"/>
		<path id="XMLID_124_" style="fill:#FC65C6;" d="M296.498,676.969c0.337,1.671-1.699,2.437-3.772,2.476
			c-2.073,0.039-3.304-1.05-3.304-1.05s0.714-1.48,2.64-2.247C293.988,675.38,296.162,675.299,296.498,676.969z"/>
		<circle id="XMLID_123_" style="fill:#FFF200;" cx="289.422" cy="678.395" r="1.682"/>
	</g>
</g>
<g>
	<g id="XMLID_86_">
		<path id="XMLID_92_" style="fill:#FFFFFF;" d="M982.612,551.967c-6.187,8.921-16.487,14.774-28.166,14.774
			c-11.679,0-21.979-5.853-28.166-14.774l-39.029,5.464v174.036h67.195h67.195V557.431L982.612,551.967z"/>
		<polygon id="XMLID_91_" style="fill:#E0F5FE;" points="887.25,557.431 843.573,590.356 869.107,627.314 887.25,615.891 		"/>
		<polygon id="XMLID_90_" style="fill:#E0F5FE;" points="1021.641,557.431 1065.318,590.356 1039.783,627.314 1021.641,615.891 		
			"/>
		<path id="XMLID_88_" style="fill:#231F20;" d="M869.108,628.625c-0.417,0-0.827-0.199-1.081-0.567l-25.533-36.957
			c-0.398-0.579-0.272-1.368,0.289-1.792l43.676-32.925c0.398-0.298,0.929-0.348,1.374-0.126c0.445,0.221,0.726,0.675,0.726,1.172
			v58.459c0,0.451-0.232,0.868-0.612,1.108l-18.143,11.424C869.589,628.558,869.347,628.625,869.108,628.625z M845.367,590.645
			l24.104,34.891l16.467-10.369V560.06L845.367,590.645z"/>
		<path id="XMLID_87_" style="fill:#231F20;" d="M1039.781,628.625c-0.238,0-0.48-0.067-0.697-0.203l-18.143-11.424
			c-0.38-0.24-0.612-0.658-0.612-1.108v-58.459c0-0.497,0.281-0.951,0.726-1.172c0.445-0.222,0.977-0.172,1.374,0.126l43.678,32.925
			c0.561,0.423,0.687,1.213,0.289,1.792l-25.535,36.957C1040.608,628.426,1040.198,628.625,1039.781,628.625z M1022.951,615.167
			l16.467,10.369l24.106-34.891l-40.573-30.585V615.167z"/>
		<path id="XMLID_179_" style="fill:#231F20;" d="M1021.64,732.778H887.249c-0.724,0-1.311-0.587-1.311-1.311V557.431
			c0-0.654,0.482-1.207,1.13-1.297l39.03-5.465c0.48-0.077,0.976,0.144,1.258,0.55c6.172,8.899,16.298,14.211,27.09,14.211
			c10.792,0,20.918-5.312,27.09-14.211c0.279-0.406,0.764-0.627,1.258-0.55l39.028,5.465c0.648,0.091,1.13,0.644,1.13,1.297v174.036
			C1022.951,732.192,1022.365,732.778,1021.64,732.778z M888.56,730.156h131.769V558.571l-37.11-5.196
			c-6.697,9.204-17.393,14.676-28.773,14.676c-11.381,0-22.076-5.472-28.773-14.676l-37.112,5.196V730.156z"/>
	</g>
	<path id="XMLID_64_" style="fill:#231F20;" d="M982.615,553.983c-0.185,0-0.372-0.026-0.557-0.079l-27.612-7.909l-27.612,7.909
		c-1.059,0.305-2.187-0.311-2.492-1.383c-0.307-1.07,0.311-2.186,1.382-2.493l28.167-8.067c0.362-0.104,0.748-0.104,1.11,0
		l28.167,8.067c1.071,0.307,1.689,1.423,1.382,2.493C984.298,553.406,983.491,553.983,982.615,553.983z"/>
	<path id="XMLID_62_" style="fill:#231F20;" d="M954.446,545.915c-1.114,0-2.016-0.903-2.016-2.016v-15.467
		c0-1.113,0.902-2.016,2.016-2.016s2.016,0.903,2.016,2.016v15.467C956.462,545.012,955.56,545.915,954.446,545.915z"/>
	<path id="XMLID_65_" style="fill:#231F20;" d="M954.78,530.447c-1.114,0-2.016-0.903-2.016-2.016c0-1.113,0.902-2.016,2.016-2.016
		c6.933,0,12.574-5.641,12.574-12.575c0-6.933-5.64-12.574-12.574-12.574c-6.933,0-12.575,5.641-12.575,12.574
		c0,1.113-0.902,2.016-2.016,2.016c-1.114,0-2.016-0.903-2.016-2.016c0-9.157,7.449-16.606,16.607-16.606
		c9.156,0,16.605,7.449,16.605,16.606C971.386,522.998,963.936,530.447,954.78,530.447z"/>
	<polygon id="XMLID_100_" style="fill:#FC65C6;" points="1051.677,667.393 1054.575,672.692 1059.874,675.59 1054.575,678.489 
		1051.677,683.788 1048.778,678.489 1043.479,675.59 1048.778,672.692 	"/>
	<polygon id="XMLID_151_" style="fill:#FC65C6;" points="893.24,513.33 897.491,521.101 905.262,525.352 897.491,529.602 
		893.24,537.373 888.99,529.602 881.219,525.352 888.99,521.101 	"/>
	<polygon id="XMLID_152_" style="fill:#FC65C6;" points="847.107,633.58 849.983,638.84 855.243,641.716 849.983,644.593 
		847.107,649.853 844.23,644.593 838.97,641.716 844.23,638.84 	"/>
	<polygon id="XMLID_153_" style="fill:#FC65C6;" points="994.808,692.243 996.798,695.881 1000.436,697.871 996.798,699.86 
		994.808,703.498 992.819,699.86 989.181,697.871 992.819,695.881 	"/>
	<polygon id="XMLID_154_" style="fill:#FC65C6;" points="1040.91,537.166 1044.717,544.126 1051.677,547.933 1044.717,551.74 
		1040.91,558.7 1037.103,551.74 1030.143,547.933 1037.103,544.126 	"/>
	<polygon id="XMLID_155_" style="fill:#FC65C6;" points="905.262,743.49 907.839,748.2 912.549,750.776 907.839,753.353 
		905.262,758.063 902.686,753.353 897.976,750.776 902.686,748.2 	"/>
</g>
<g>
	<rect id="XMLID_158_" x="778.737" y="941.926" style="fill:#231F20;" width="21.559" height="16.951"/>
	<rect id="XMLID_156_" x="541.41" y="1072.552" style="fill:#231F20;" width="151.786" height="9.226"/>
	<polygon id="XMLID_197_" style="fill:#FFFFFF;" points="737.462,1096.437 507.136,941.926 496.726,957.443 703.919,1096.437 	"/>
	<path id="XMLID_161_" style="fill:#231F20;" d="M737.461,1097.747H703.92c-0.26,0-0.514-0.079-0.73-0.222L495.996,958.533
		c-0.6-0.404-0.761-1.219-0.358-1.819l10.41-15.518c0.194-0.287,0.494-0.488,0.836-0.555c0.341-0.061,0.696,0.004,0.983,0.197
		l230.326,154.51c0.478,0.321,0.691,0.919,0.524,1.471C738.546,1097.369,738.038,1097.747,737.461,1097.747z M704.32,1095.125
		h28.836l-225.662-151.38l-8.95,13.341L704.32,1095.125z"/>
	<polygon id="XMLID_196_" style="fill:#FFFFFF;" points="737.462,957.443 727.052,941.926 496.726,1096.437 530.269,1096.437 	"/>
	<path id="XMLID_67_" style="fill:#231F20;" d="M530.269,1097.747h-33.543c-0.577,0-1.086-0.378-1.254-0.929
		c-0.167-0.551,0.045-1.15,0.524-1.471l230.326-154.51c0.291-0.193,0.644-0.26,0.984-0.197c0.341,0.067,0.64,0.268,0.835,0.555
		l10.41,15.518c0.404,0.6,0.242,1.415-0.358,1.819L531,1097.525C530.783,1097.668,530.529,1097.747,530.269,1097.747z
		 M501.031,1095.125h28.839l205.772-138.039l-8.949-13.341L501.031,1095.125z"/>
	<path id="XMLID_163_" style="fill:#E0F5FE;" d="M765.527,967.778H468.661c-9.008,0-16.311-7.303-16.311-16.311l0,0
		c0-9.008,7.303-16.311,16.311-16.311h296.865c9.008,0,16.311,7.303,16.311,16.311l0,0
		C781.838,960.476,774.535,967.778,765.527,967.778z"/>
	<g id="XMLID_157_">
		<path id="XMLID_189_" style="fill:#E0F5FE;" d="M759.661,915.467h-58.258c-5.437,0-9.844-4.408-9.844-9.845l0,0
			c0-5.437,4.408-9.844,9.844-9.844h58.258c5.437,0,9.845,4.408,9.845,9.844l0,0C769.505,911.059,765.098,915.467,759.661,915.467z"
			/>
		<path id="XMLID_190_" style="fill:#FFFFFF;" d="M755.836,900.286h-3.956h-1.226h-3.956h-0.752h-3.956h-1.226h-3.956h-12.549
			h-3.956h-1.226h-3.956h-0.752h-3.956h-1.226h-3.956c-2.947,0-5.336,2.389-5.336,5.336c0,2.947,2.389,5.336,5.336,5.336h3.956
			h1.226h3.956h0.752h3.956h1.226h3.956h12.549h3.956h1.226h3.956h0.752h3.956h1.226h3.956c2.947,0,5.336-2.389,5.336-5.336
			C761.172,902.675,758.783,900.286,755.836,900.286z"/>
		<path id="XMLID_160_" style="fill:#231F20;" d="M759.662,916.778h-58.259c-6.15,0-11.154-5.004-11.154-11.156
			c0-6.152,5.004-11.156,11.154-11.156h58.259c6.15,0,11.154,5.004,11.154,11.156C770.816,911.774,765.811,916.778,759.662,916.778z
			 M701.402,897.088c-4.705,0-8.532,3.827-8.532,8.534c0,4.707,3.827,8.534,8.532,8.534h58.259c4.705,0,8.532-3.827,8.532-8.534
			c0-4.707-3.827-8.534-8.532-8.534H701.402z"/>
		<path id="XMLID_193_" style="fill:#231F20;" d="M755.836,912.27h-50.609c-3.664,0-6.646-2.983-6.646-6.648
			c0-3.666,2.983-6.648,6.646-6.648h50.609c3.664,0,6.646,2.982,6.646,6.648C762.483,909.288,759.5,912.27,755.836,912.27z
			 M705.227,901.596c-2.219,0-4.024,1.805-4.024,4.026c0,2.221,1.805,4.026,4.024,4.026h50.609c2.219,0,4.024-1.805,4.024-4.026
			c0-2.221-1.805-4.026-4.024-4.026H705.227z"/>
	</g>
	<g id="XMLID_191_">
		<path id="XMLID_195_" style="fill:#E0F5FE;" d="M759.661,935.156h-58.258c-5.437,0-9.844-4.407-9.844-9.844l0,0
			c0-5.437,4.408-9.845,9.844-9.845h58.258c5.437,0,9.845,4.408,9.845,9.845l0,0C769.505,930.748,765.098,935.156,759.661,935.156z"
			/>
		<path id="XMLID_194_" style="fill:#FFFFFF;" d="M755.836,919.975h-3.956h-1.226h-3.956h-0.752h-3.956h-1.226h-3.956h-12.549
			h-3.956h-1.226h-3.956h-0.752h-3.956h-1.226h-3.956c-2.947,0-5.336,2.389-5.336,5.336c0,2.947,2.389,5.336,5.336,5.336h3.956
			h1.226h3.956h0.752h3.956h1.226h3.956h12.549h3.956h1.226h3.956h0.752h3.956h1.226h3.956c2.947,0,5.336-2.389,5.336-5.336
			C761.172,922.364,758.783,919.975,755.836,919.975z"/>
		<path id="XMLID_192_" style="fill:#231F20;" d="M759.662,936.466h-58.259c-6.15,0-11.154-5.004-11.154-11.156
			c0-6.15,5.004-11.154,11.154-11.154h58.259c6.15,0,11.154,5.004,11.154,11.154C770.816,931.462,765.811,936.466,759.662,936.466z
			 M701.402,916.778c-4.705,0-8.532,3.827-8.532,8.532c0,4.707,3.827,8.534,8.532,8.534h58.259c4.705,0,8.532-3.827,8.532-8.534
			c0-4.705-3.827-8.532-8.532-8.532H701.402z"/>
		<path id="XMLID_150_" style="fill:#231F20;" d="M755.836,931.958h-50.609c-3.664,0-6.646-2.982-6.646-6.648
			c0-3.664,2.983-6.646,6.646-6.646h50.609c3.664,0,6.646,2.982,6.646,6.646C762.483,928.976,759.5,931.958,755.836,931.958z
			 M705.227,921.286c-2.219,0-4.024,1.805-4.024,4.024c0,2.221,1.805,4.026,4.024,4.026h50.609c2.219,0,4.024-1.805,4.024-4.026
			c0-2.219-1.805-4.024-4.024-4.024H705.227z"/>
	</g>
	<path id="XMLID_164_" style="fill:#231F20;" d="M765.526,969.09H468.661c-9.716,0-17.621-7.906-17.621-17.623
		s7.905-17.623,17.621-17.623h296.865c9.717,0,17.623,7.906,17.623,17.623S775.243,969.09,765.526,969.09z M468.661,936.466
		c-8.271,0-15.001,6.729-15.001,15.001s6.73,15.001,15.001,15.001h296.865c8.272,0,15.001-6.729,15.001-15.001
		s-6.729-15.001-15.001-15.001H468.661z"/>
</g>
<g>
	<path id="XMLID_188_" style="fill:#FFFFFF;" d="M92.28,1062.462c0,0,3.382-7.397,9.303-18.238
		c25.605-46.884,72.298-78.516,125.33-84.944l0,0c17.893-2.169,35.98-2.203,53.881-0.102l31.805,2.693v100.592H92.28z"/>
	<path id="XMLID_187_" style="fill:#FFFFFF;" d="M107.976,1033.534L107.976,1033.534l204.624-12.531v-16.895l-194.305,15.199
		C114.618,1023.839,111.179,1028.592,107.976,1033.534z"/>
	<g id="XMLID_184_">
		<path id="XMLID_186_" style="fill:#FFFFFF;" d="M145.299,1017.195L145.299,1017.195c0,0,13.254-20.645,36.818-34.428
			c12.24-7.159,18.954-13.477,22.526-19.206c-34.005,8.961-64.227,28.534-86.308,55.744L145.299,1017.195z"/>
		<path id="XMLID_185_" style="fill:#FFFFFF;" d="M117.9,1019.821c-1.496,1.859-2.955,3.752-4.374,5.68l0.017,0.002
			C114.958,1023.576,116.406,1021.678,117.9,1019.821z"/>
	</g>
	<polygon id="XMLID_183_" style="fill:#E0F5FE;" points="300.902,960.879 304.12,942.033 312.599,943.765 312.599,961.87 	"/>
	<path id="XMLID_182_" style="fill:#E0F5FE;" d="M101.583,1044.224c-5.921,10.841-9.303,18.238-9.303,18.238h220.32v-41.458
		l-204.624,12.531C105.726,1037.005,103.582,1040.562,101.583,1044.224z"/>
	<path id="XMLID_181_" style="fill:#E0F5FE;" d="M237.391,975.052c-3.961,0.261-7.812,0.599-11.227,1.029
		c-5.646,0.711-10.53,4.244-12.972,9.384c-0.29,0.611-0.51,1.241-0.721,1.871l13.093-1.023c3.521-0.275,6.678-2.273,8.433-5.337
		L237.391,975.052z"/>
	<path id="XMLID_180_" style="fill:#E0F5FE;" d="M239.496,1009.306l1.401-5.804c0.405-1.679,1.82-2.923,3.536-3.11l26.756-2.919
		c1.789-0.195,3.496,0.801,4.207,2.455l2.946,6.86L239.496,1009.306z"/>
	<path id="XMLID_176_" style="fill:#E0F5FE;" d="M159.84,982.797c13.811-8.532,28.893-15.044,44.803-19.237h-32.755
		c-4.457,0-8.635,2.171-11.197,5.818l0,0c-2.211,3.147-2.996,7.08-2.161,10.835l0.468,2.108L159.84,982.797z"/>
	<path id="XMLID_167_" style="fill:#231F20;" d="M312.6,1063.773H92.28c-0.446,0-0.861-0.228-1.102-0.602
		c-0.241-0.376-0.275-0.848-0.09-1.254c0.035-0.075,3.47-7.561,9.345-18.32c25.747-47.142,72.971-79.15,126.323-85.619
		c17.978-2.177,36.211-2.211,54.191-0.102l31.764,2.689c0.679,0.057,1.2,0.624,1.2,1.305v100.592
		C313.91,1063.186,313.323,1063.773,312.6,1063.773z M94.346,1061.151H311.29v-98.076l-30.606-2.593
		c-17.816-2.087-35.839-2.057-53.613,0.098c-52.514,6.366-98.996,37.87-124.338,84.272
		C98.615,1052.392,95.708,1058.306,94.346,1061.151z"/>
	<path id="XMLID_165_" style="fill:#231F20;" d="M319.127,1070.622H86.568c-2.253,0-4.08-1.827-4.08-4.08l0,0
		c0-2.253,1.827-4.08,4.08-4.08h232.56c2.253,0,4.08,1.827,4.08,4.08l0,0C323.207,1068.795,321.381,1070.622,319.127,1070.622z"/>
	<path id="XMLID_170_" style="fill:#231F20;" d="M229.036,1011.351c-5.069,0-9.866-2.095-13.252-5.744l-0.721-0.778
		c-5.029-5.425-6.228-13.245-3.054-19.926c2.645-5.567,7.876-9.351,13.992-10.121c10.385-1.309,24.765-1.774,33.924-1.774
		c12.861,0,32.93,3.543,33.131,3.579c0.625,0.11,1.081,0.654,1.081,1.289v27.779c0,0.689-0.533,1.26-1.22,1.307l-63.869,4.388
		C229.043,1011.351,229.04,1011.351,229.036,1011.351z M259.925,975.63c-9.083,0-23.332,0.459-33.597,1.75
		c-5.224,0.657-9.692,3.89-11.952,8.648c-2.71,5.705-1.686,12.385,2.609,17.017l0.721,0.778c2.894,3.12,6.995,4.91,11.252,4.91
		l62.559-4.299v-25.452C287.191,978.252,270.855,975.63,259.925,975.63z"/>
	<path id="XMLID_171_" style="fill:#231F20;" d="M312.6,1063.773H92.28c-0.446,0-0.861-0.228-1.102-0.602
		c-0.241-0.376-0.275-0.848-0.09-1.254c0.035-0.075,3.47-7.561,9.345-18.32l0,0c1.923-3.522,4.091-7.146,6.443-10.774
		c0.226-0.348,0.604-0.569,1.02-0.595l204.624-12.532c0.352-0.029,0.714,0.104,0.977,0.352c0.264,0.248,0.412,0.593,0.412,0.955
		v41.459C313.91,1063.186,313.323,1063.773,312.6,1063.773z M94.346,1061.151H311.29v-38.754l-202.573,12.406
		c-2.178,3.388-4.19,6.766-5.985,10.05l0,0C98.615,1052.392,95.708,1058.306,94.346,1061.151z"/>
	<path id="XMLID_169_" style="fill:#231F20;" d="M107.975,1034.846c-0.464,0-0.896-0.246-1.132-0.65
		c-0.249-0.427-0.236-0.959,0.033-1.374c3.248-5.012,6.747-9.837,10.401-14.339c0.226-0.28,0.557-0.453,0.915-0.482l194.305-15.2
		c0.37-0.024,0.724,0.098,0.992,0.345c0.268,0.248,0.42,0.596,0.42,0.963v16.895c0,0.693-0.538,1.266-1.23,1.307l-204.624,12.532
		C108.028,1034.844,108.002,1034.846,107.975,1034.846z M118.959,1020.57c-2.936,3.648-5.769,7.504-8.446,11.497l200.777-12.296
		v-14.245L118.959,1020.57z"/>
	<g id="XMLID_168_">
		<path id="XMLID_173_" style="fill:#231F20;" d="M118.335,1020.615c-0.484,0-0.932-0.268-1.16-0.703
			c-0.243-0.463-0.187-1.028,0.143-1.433c22.463-27.679,52.544-47.109,86.992-56.186c0.518-0.126,1.07,0.057,1.388,0.49
			c0.319,0.433,0.341,1.016,0.058,1.471c-4.098,6.571-11.613,12.997-22.977,19.645c-23.028,13.469-36.247,33.801-36.378,34.006
			c-0.221,0.344-0.592,0.565-1,0.599l-26.963,2.108C118.403,1020.613,118.369,1020.615,118.335,1020.615z M201.45,965.799
			c-31.448,9.024-59.035,26.909-80.135,51.957l23.248-1.817c2.318-3.398,15.473-21.775,36.893-34.305
			C190.71,976.221,197.293,971.012,201.45,965.799z"/>
		<path id="XMLID_175_" style="fill:#231F20;" d="M113.544,1026.814c-0.048,0-0.096-0.004-0.145-0.008
			c-0.466-0.053-0.877-0.351-1.064-0.778c-0.188-0.429-0.142-0.927,0.136-1.305c1.407-1.912,2.886-3.831,4.396-5.707
			c0.004-0.006,0.009-0.012,0.013-0.016l0,0c0.453-0.565,1.28-0.654,1.843-0.199c0.563,0.453,0.653,1.278,0.199,1.841
			c-1.413,1.758-2.827,3.601-4.321,5.636C114.352,1026.617,113.958,1026.814,113.544,1026.814z"/>
	</g>
	<path id="XMLID_166_" style="fill:#231F20;" d="M159.84,984.109c-0.222,0-0.444-0.057-0.645-0.169l-0.844-0.476
		c-0.323-0.183-0.554-0.494-0.635-0.858l-0.468-2.108c-0.913-4.102-0.05-8.432,2.368-11.873c2.803-3.99,7.39-6.374,12.269-6.374
		h32.755c0.659,0,1.215,0.49,1.299,1.142c0.085,0.654-0.329,1.268-0.966,1.437c-15.686,4.134-30.64,10.554-44.446,19.084
		C160.319,984.042,160.08,984.109,159.84,984.109z M171.887,964.872c-4.027,0-7.811,1.965-10.126,5.26
		c-1.995,2.839-2.708,6.41-1.955,9.798l0.265,1.189c11.158-6.794,23.044-12.241,35.444-16.247H171.887z"/>
	<path id="XMLID_174_" style="fill:#231F20;" d="M312.6,963.18c-0.036,0-0.074-0.002-0.11-0.006l-11.698-0.99
		c-0.366-0.029-0.702-0.213-0.926-0.504c-0.224-0.289-0.317-0.659-0.255-1.022l3.218-18.846c0.059-0.35,0.259-0.661,0.551-0.86
		c0.293-0.203,0.655-0.276,1.002-0.203l8.48,1.732c0.61,0.124,1.048,0.661,1.048,1.284v18.103c0,0.366-0.154,0.717-0.423,0.965
		C313.243,963.057,312.926,963.18,312.6,963.18z M302.434,959.694l8.856,0.75v-15.609l-6.106-1.246L302.434,959.694z"/>
	<path id="XMLID_178_" style="fill:#231F20;" d="M396.261,1031.688c-0.242,0-0.488-0.043-0.727-0.136
		c-26.781-10.355-29.143-33.455-24.134-72.455c2.345-18.257-1.996-33.118-11.909-40.776c-7.388-5.707-17.196-6.74-26.905-2.823
		c-21.689,8.741-21.856,27.279-21.855,27.464c0.005,1.114-0.894,2.02-2.007,2.026c-0.003,0-0.006,0-0.009,0
		c-1.109,0-2.011-0.896-2.016-2.006c-0.004-0.872,0.181-21.472,24.379-31.224c11.07-4.461,22.326-3.232,30.878,3.374
		c11.074,8.554,15.974,24.767,13.443,44.477c-4.855,37.807-2.849,58.734,21.591,68.183c1.039,0.401,1.554,1.569,1.153,2.606
		C397.832,1031.198,397.069,1031.688,396.261,1031.688z"/>
	<path id="XMLID_172_" style="fill:#231F20;" d="M212.471,988.646c-0.402,0-0.783-0.185-1.033-0.504
		c-0.271-0.346-0.349-0.805-0.21-1.223c0.226-0.679,0.466-1.358,0.779-2.018c2.645-5.567,7.876-9.351,13.992-10.121
		c3.197-0.404,7.001-0.754,11.304-1.038c0.495-0.028,0.943,0.205,1.198,0.612c0.256,0.409,0.266,0.927,0.026,1.347l-3.394,5.926
		c-1.973,3.443-5.513,5.681-9.468,5.992l-13.092,1.022C212.539,988.644,212.505,988.646,212.471,988.646z M235.033,976.532
		c-3.256,0.246-6.176,0.53-8.705,0.848c-5.166,0.652-9.592,3.817-11.876,8.487l11.008-0.86c3.091-0.24,5.857-1.992,7.399-4.681
		L235.033,976.532z"/>
	<path id="XMLID_4_" style="fill:#231F20;" d="M239.496,1010.618c-0.385,0-0.753-0.171-1.003-0.469
		c-0.268-0.317-0.368-0.744-0.271-1.15l1.401-5.805c0.534-2.207,2.409-3.857,4.667-4.107l26.757-2.918
		c2.379-0.252,4.609,1.043,5.552,3.24l2.946,6.859c0.168,0.392,0.136,0.841-0.087,1.203c-0.223,0.362-0.607,0.594-1.033,0.622
		l-38.846,2.52C239.552,1010.616,239.525,1010.618,239.496,1010.618z M271.639,998.759c-0.101,0-0.205,0.006-0.308,0.018
		l-26.755,2.917c-1.163,0.128-2.13,0.978-2.405,2.114l-0.983,4.075l35.218-2.284l-2.214-5.154
		C273.746,999.409,272.745,998.759,271.639,998.759z"/>
</g>
</svg>
